<svg xmlns="http://www.w3.org/2000/svg" viewBox="0 0 48 48"><symbol id="New_Symbol_14" viewBox="-6.5 -6.5 13 13"><path fill="#ffd4c3" stroke="#504b46" stroke-linecap="round" stroke-linejoin="round" stroke-miterlimit="10" d="M0-6c2.2 0 4.1 1.5 4.7 3.5C6.3-2.5 6.4 0 5 0v1c0 2.8-2.2 5-5 5s-5-2.2-5-5V0c-1.4 0-1.3-2.5.2-2.5C-4.1-4.5-2.2-6 0-6z"/><circle cx="-1.6" cy="-.1" r=".1" fill="#ffc258"/><path fill="#4f4b45" d="M-1.6.5c-.3 0-.6-.3-.6-.6s.2-.7.6-.7c.3 0 .6.3.6.7s-.3.6-.6.6z"/><circle cx="1.6" cy="-.1" r=".1" fill="#ffc258"/><path fill="#4f4b45" d="M1.6.5C1.3.5 1 .2 1-.1s.3-.6.6-.6.6.3.6.6-.2.6-.6.6z"/><circle cx="-3" cy="-1.5" r=".5" fill="#fabfa5"/><circle cx="3" cy="-1.5" r=".5" fill="#fabfa5"/><path fill="none" stroke="#504b46" stroke-linecap="round" stroke-linejoin="round" stroke-miterlimit="10" d="M-1.2-3c.8-.5 1.7-.5 2.5 0"/></symbol><g id="Icons"><g id="XMLID_1867_"><path id="XMLID_2563_" fill="#e8f4fa" d="M38.1 5.2c-.7.2-1.4.3-2.2.3h-9.6c-.6 0-1.2-.3-1.5-.8-.3-.5-.9-.8-1.5-.8h-7v5.3h7c.6 0 1.2-.3 1.5-.8.3-.5.9-.8 1.5-.8h9.6c.7 0 1.5.1 2.2.3.7.2 1.4.3 2.2.3h4.3c.9 0 1.6-.7 1.6-1.6 0-.9-.7-1.6-1.6-1.6h-4.3c-.8 0-1.5.1-2.2.2z"/><path id="XMLID_2562_" fill="#fff" d="M24.8 6.1c.3.4.9.6 1.5.6h9.6c.7 0 1.5-.1 2.2-.2.7-.1 1.4-.2 2.2-.2h4.3c.7 0 1.3.3 1.5.8.1-.2.1-.3.1-.5 0-.9-.7-1.6-1.6-1.6h-4.3c-.7 0-1.5.1-2.2.3-.7.2-1.4.3-2.2.3h-9.6c-.6 0-1.2-.3-1.5-.8s-.9-.8-1.5-.8h-7v1.6h7c.6-.1 1.2.1 1.5.5z"/><path id="XMLID_2561_" fill="none" stroke="#45413c" stroke-linecap="round" stroke-linejoin="round" stroke-miterlimit="10" d="M38.1 5.2c-.7.2-1.4.3-2.2.3h-9.6c-.6 0-1.2-.3-1.5-.8-.3-.5-.9-.8-1.5-.8h-7v5.3h7c.6 0 1.2-.3 1.5-.8.3-.5.9-.8 1.5-.8h9.6c.7 0 1.5.1 2.2.3.7.2 1.4.3 2.2.3h4.3c.9 0 1.6-.7 1.6-1.6 0-.9-.7-1.6-1.6-1.6h-4.3c-.8 0-1.5.1-2.2.2z"/><path id="XMLID_2560_" fill="#ffe500" d="M16.8 15.1c-.6 0-1.1-.5-1.1-1.1V9.2c0-.6.5-1.1 1.1-1.1.6 0 1.1.5 1.1 1.1V14c0 .6-.5 1.1-1.1 1.1z"/><path id="XMLID_2559_" fill="#ebcb00" d="M17.9 12.7h-2.1V9.2c0-.6.5-1.1 1.1-1.1.6 0 1.1.5 1.1 1.1v3.5z"/><path id="XMLID_2558_" fill="#ffe500" d="M17.9 8.2H20v13.3h-2.1z"/><path id="XMLID_2557_" fill="#ebcb00" d="M17.9 8.2H20v4.3h-2.1z"/><path id="XMLID_2556_" fill="none" stroke="#45413c" stroke-linecap="round" stroke-linejoin="round" stroke-miterlimit="10" d="M16.8 15.1c-.6 0-1.1-.5-1.1-1.1V9.2c0-.6.5-1.1 1.1-1.1.6 0 1.1.5 1.1 1.1V14c0 .6-.5 1.1-1.1 1.1z"/><path id="XMLID_2555_" fill="none" stroke="#45413c" stroke-linecap="round" stroke-linejoin="round" stroke-miterlimit="10" d="M17.9 8.2H20v13.3h-2.1z"/><ellipse id="XMLID_2554_" cx="22.7" cy="43.6" fill="#45413c" opacity=".15" rx="12.2" ry="1.6"/><path id="XMLID_2553_" fill="#f0f0f0" d="M43.4 29.7c0 6-9.3 10.9-20.8 10.9S1.8 35.7 1.8 29.7s9.3-10.4 20.8-10.4 20.8 4.4 20.8 10.4z"/><path id="XMLID_2552_" fill="#fff" d="M22.7 22.7c10.4 0 18.9 3.6 20.5 8.7.2-.6.3-1.1.3-1.7 0-6-9.3-10.4-20.8-10.4S1.9 23.7 1.9 29.7c0 .6.1 1.1.3 1.7 1.5-5.1 10.1-8.7 20.5-8.7z"/><path id="XMLID_2551_" fill="none" stroke="#45413c" stroke-linecap="round" stroke-linejoin="round" stroke-miterlimit="10" d="M43.4 29.7c0 6-9.3 10.9-20.8 10.9S1.8 35.7 1.8 29.7s9.3-10.4 20.8-10.4 20.8 4.4 20.8 10.4z"/><path id="XMLID_2550_" fill="#ffe500" d="M37 27.4c0 4.3-6.4 7.9-14.4 7.9S8.3 31.8 8.3 27.4s6.4-9.7 14.4-9.7S37 23.1 37 27.4z"/><path id="XMLID_2549_" fill="#fff48c" d="M22.7 20.4c7.1 0 13 4.3 14.2 8.3.1-.4.2-.9.2-1.3 0-4.4-6.4-9.7-14.4-9.7S8.3 23.1 8.3 27.4c0 .4.1.9.2 1.3 1.2-4 7-8.3 14.2-8.3z"/><path id="XMLID_2548_" fill="none" stroke="#45413c" stroke-linecap="round" stroke-linejoin="round" stroke-miterlimit="10" d="M37 27.4c0 4.3-6.4 7.9-14.4 7.9S8.3 31.8 8.3 27.4s6.4-9.7 14.4-9.7S37 23.1 37 27.4z"/><path id="XMLID_2547_" fill="#ffe500" stroke="#45413c" stroke-linecap="round" stroke-linejoin="round" stroke-miterlimit="10" d="M10 31.1l-.1-.6s-.7-5 3.7-7.5"/><path id="XMLID_2546_" fill="none" stroke="#45413c" stroke-linecap="round" stroke-linejoin="round" stroke-miterlimit="10" d="M12 32.7c0-.1-1.2-5.6 3.2-8.1 0 0-2 6.1 2.4 7.6"/><path id="XMLID_2545_" fill="none" stroke="#45413c" stroke-linecap="round" stroke-linejoin="round" stroke-miterlimit="10" d="M14.2 33.7s3.4.4 4.8-3.7-1.1-7.5-1.1-7.5"/><path id="XMLID_2544_" fill="none" stroke="#45413c" stroke-linecap="round" stroke-linejoin="round" stroke-miterlimit="10" d="M17.9 34.8s3.5-.6 4.8-4.8-.5-8.5-.5-8.5"/><path id="XMLID_2543_" fill="none" stroke="#45413c" stroke-linecap="round" stroke-linejoin="round" stroke-miterlimit="10" d="M23.2 27.3s2.3 2.6 6.2 2.7"/><path id="XMLID_2542_" fill="none" stroke="#45413c" stroke-linecap="round" stroke-linejoin="round" stroke-miterlimit="10" d="M34.9 31.6s1-2.2 0-4.8-3.7-3.2-3.7-3.2c2 3.1 1.5 10.6-3.7 11.2-5.2.5-4.8-4.3-4.8-4.3 2.1 2.9 6 2.4 6.9-1.1.9-3.4-1.1-5.3-1.1-5.3"/><path id="XMLID_2541_" fill="#ff6242" d="M23.2 16.7c-8.1 0-10.9 3.5-11.2 5.9s1.9 3.7 4.3 3.2 2.8 3.5 8 3.2c5.2-.3 4.1-3.2 7.5-4.3 2.1-.7 3.9-2.7 1.1-4.8-2.1-1.5-4.5-3.2-9.7-3.2z"/><path id="XMLID_2540_" fill="#ff866e" d="M23.2 18.8c5.2 0 7.6 1.8 9.6 3.2.5.4.9.8 1.1 1.1.6-.9.5-2.1-1.1-3.3-1.9-1.4-4.3-3.2-9.6-3.2-8.1 0-10.9 3.5-11.2 5.9-.1.5 0 1 .2 1.5.7-2.3 3.7-5.2 11-5.2z"/><path id="XMLID_2539_" fill="none" stroke="#45413c" stroke-linecap="round" stroke-linejoin="round" stroke-miterlimit="10" d="M23.2 16.7c-8.1 0-10.9 3.5-11.2 5.9s1.9 3.7 4.3 3.2 2.8 3.5 8 3.2c5.2-.3 4.1-3.2 7.5-4.3 2.1-.7 3.9-2.7 1.1-4.8-2.1-1.5-4.5-3.2-9.7-3.2z"/><path id="XMLID_2538_" fill="#ffe500" d="M16.3 10.3c-.6 0-1.1-.5-1.1-1.1V4.4c0-.6.5-1.1 1.1-1.1.6 0 1.1.5 1.1 1.1v4.8c-.1.6-.5 1.1-1.1 1.1z"/><path id="XMLID_2537_" fill="#ffe500" d="M18.4 10.3c-.6 0-1.1-.5-1.1-1.1V4.4c0-.6.5-1.1 1.1-1.1.6 0 1.1.5 1.1 1.1v4.8c0 .6-.5 1.1-1.1 1.1z"/><path id="XMLID_1146_" fill="#ffe500" d="M20.5 10.3c-.6 0-1.1-.5-1.1-1.1V3.9c0-.6.5-1.1 1.1-1.1.6 0 1.1.5 1.1 1.1v5.3c0 .6-.5 1.1-1.1 1.1z"/><path id="XMLID_1145_" fill="#ffe500" d="M14.3 9.8H14c-.5 0-.9-.4-.9-.9v-4c0-.5.4-.9.9-.9h.2c.5 0 .9.4.9.9v4c.1.4-.3.9-.8.9z"/><path id="XMLID_1144_" fill="#fff48c" d="M16.3 3.4c-.6 0-1.1.5-1.1 1.1v2.1c0-.6.5-1.1 1.1-1.1.6 0 1.1.5 1.1 1.1V4.4c-.1-.6-.5-1-1.1-1z"/><path id="XMLID_1143_" fill="#fff48c" d="M18.4 3.4c-.6 0-1.1.5-1.1 1.1v2.1c0-.6.5-1.1 1.1-1.1s1.1.5 1.1 1.1V4.4c0-.6-.5-1-1.1-1z"/><path id="XMLID_1142_" fill="#fff48c" d="M20.5 2.8c-.6 0-1.1.5-1.1 1.1V6c0-.6.5-1.1 1.1-1.1s1.1.5 1.1 1.1V3.9c0-.6-.5-1.1-1.1-1.1z"/><path id="XMLID_1141_" fill="#fff48c" d="M14.3 3.9H14c-.5 0-.9.4-.9.9v2.1c0-.5.4-.9.9-.9h.2c.5 0 .9.4.9.9V4.8c.1-.5-.3-.9-.8-.9z"/><path id="XMLID_1140_" fill="none" stroke="#45413c" stroke-linecap="round" stroke-linejoin="round" stroke-miterlimit="10" d="M16.3 10.3c-.6 0-1.1-.5-1.1-1.1V4.4c0-.6.5-1.1 1.1-1.1.6 0 1.1.5 1.1 1.1v4.8c-.1.6-.5 1.1-1.1 1.1z"/><path id="XMLID_1139_" fill="none" stroke="#45413c" stroke-linecap="round" stroke-linejoin="round" stroke-miterlimit="10" d="M18.4 10.3c-.6 0-1.1-.5-1.1-1.1V4.4c0-.6.5-1.1 1.1-1.1.6 0 1.1.5 1.1 1.1v4.8c0 .6-.5 1.1-1.1 1.1z"/><path id="XMLID_1138_" fill="none" stroke="#45413c" stroke-linecap="round" stroke-linejoin="round" stroke-miterlimit="10" d="M20.5 10.3c-.6 0-1.1-.5-1.1-1.1V3.9c0-.6.5-1.1 1.1-1.1.6 0 1.1.5 1.1 1.1v5.3c0 .6-.5 1.1-1.1 1.1z"/><path id="XMLID_1137_" fill="none" stroke="#45413c" stroke-linecap="round" stroke-linejoin="round" stroke-miterlimit="10" d="M14.3 9.8H14c-.5 0-.9-.4-.9-.9v-4c0-.5.4-.9.9-.9h.2c.5 0 .9.4.9.9v4c.1.4-.3.9-.8.9z"/><path id="XMLID_1128_" fill="#bf8256" d="M19.8 22.7l-2.1-.4c-.3 0-.5-.3-.4-.6l.3-1.6c0-.3.3-.5.6-.4l2.1.4c.3 0 .5.3.4.6l-.3 1.6c-.1.3-.3.4-.6.4z"/><path id="XMLID_1135_" fill="#dea47a" d="M17.4 22.2l.1-.7c0-.3.3-.5.6-.4l2.1.4c.1 0 .2.1.3.2l.1-.9c0-.3-.1-.6-.4-.6l-2.1-.4c-.3 0-.6.1-.6.4l-.3 1.6c0 .1.1.3.2.4z"/><path id="XMLID_1127_" fill="none" stroke="#45413c" stroke-linecap="round" stroke-linejoin="round" stroke-miterlimit="10" d="M19.8 22.7l-2.1-.4c-.3 0-.5-.3-.4-.6l.3-1.6c0-.3.3-.5.6-.4l2.1.4c.3 0 .5.3.4.6l-.3 1.6c-.1.3-.3.4-.6.4z"/><path id="XMLID_1126_" fill="#bf8256" d="M27.6 24.3l-2 .8c-.3.1-.6 0-.7-.3l-.6-1.5c-.1-.3 0-.6.3-.7l2-.8c.3-.1.6 0 .7.3l.6 1.5c.1.3 0 .6-.3.7z"/><path id="XMLID_1132_" fill="#dea47a" d="M24.7 24.3l1.9-.8c.3-.1.6 0 .7.3l.3.6h.1c.3-.1.4-.4.3-.7l-.6-1.5c-.1-.3-.4-.4-.7-.3l-2 .8c-.3.1-.4.4-.3.7l.3.9z"/><path id="XMLID_1125_" fill="none" stroke="#45413c" stroke-linecap="round" stroke-linejoin="round" stroke-miterlimit="10" d="M27.6 24.3l-2 .8c-.3.1-.6 0-.7-.3l-.6-1.5c-.1-.3 0-.6.3-.7l2-.8c.3-.1.6 0 .7.3l.6 1.5c.1.3 0 .6-.3.7z"/><path id="XMLID_1123_" fill="#bf8256" d="M25.1 19.1l-1.3-1.7c-.2-.2-.1-.6.1-.7l1.3-1c.2-.2.6-.1.7.1l1.3 1.7c.2.2.1.6-.1.7l-1.3 1c-.2.2-.5.2-.7-.1z"/><path id="XMLID_1129_" fill="#dea47a" d="M24.3 18l.9-.7c.2-.2.6-.1.7.1l.8 1.1.3-.3c.2-.2.3-.5.1-.7L26 15.8c-.2-.2-.5-.3-.7-.1l-1.3 1c-.2.2-.3.5-.1.7l.4.6z"/><path id="XMLID_1121_" fill="none" stroke="#45413c" stroke-linecap="round" stroke-linejoin="round" stroke-miterlimit="10" d="M25.1 19.1l-1.3-1.7c-.2-.2-.1-.6.1-.7l1.3-1c.2-.2.6-.1.7.1l1.3 1.7c.2.2.1.6-.1.7l-1.3 1c-.2.2-.5.2-.7-.1z"/></g></g></svg>